<?xml version="1.0" encoding="UTF-8" standalone="no"?>
<!-- Created with Inkscape (http://www.inkscape.org/) -->

<svg
   version="1.1"
   id="svg2708"
   width="828.8905"
   height="1052.6576"
   viewBox="0 0 828.8905 1052.6576"
   sodipodi:docname="trr2.svg"
   inkscape:version="1.2.2 (732a01da63, 2022-12-09, custom)"
   xmlns:inkscape="http://www.inkscape.org/namespaces/inkscape"
   xmlns:sodipodi="http://sodipodi.sourceforge.net/DTD/sodipodi-0.dtd"
   xmlns="http://www.w3.org/2000/svg"
   xmlns:svg="http://www.w3.org/2000/svg">
  <defs
     id="defs2712" />
  <sodipodi:namedview
     id="namedview2710"
     pagecolor="#ffffff"
     bordercolor="#000000"
     borderopacity="0.25"
     inkscape:showpageshadow="2"
     inkscape:pageopacity="0.0"
     inkscape:pagecheckerboard="0"
     inkscape:deskcolor="#d1d1d1"
     showgrid="false"
     inkscape:zoom="0.74639429"
     inkscape:cx="391.21414"
     inkscape:cy="505.09497"
     inkscape:window-width="1920"
     inkscape:window-height="1031"
     inkscape:window-x="0"
     inkscape:window-y="25"
     inkscape:window-maximized="1"
     inkscape:current-layer="layer1" />
  <g
     inkscape:groupmode="layer"
     id="layer1"
     inkscape:label="Layer 1"
     transform="translate(-64.676312,-49.634798)">
    <path
       style="fill:#000000;stroke-width:1.33333"
       d="m 324.35099,1098.6365 c -7.12568,-4.0858 -15.85327,-13.8203 -20.42471,-22.781 -6.27944,-12.3088 -12.68281,-41.5943 -14.12605,-64.6048 -0.79784,-12.72061 -0.64963,-13.84344 2.85973,-21.66332 4.63824,-10.33536 12.4106,-17.65321 22.78163,-21.44938 4.34046,-1.58878 9.92405,-3.91978 12.40798,-5.18002 11.95599,-6.06596 43.3052,-41.20509 62.11531,-69.62467 43.12625,-65.15804 66.70399,-157.74597 72.83055,-285.99999 1.5665,-32.7934 0.77289,-100.66366 -1.24074,-106.10699 -1.03794,-2.80584 -1.19049,-2.74432 -3.95305,1.59427 -1.5804,2.482 -4.53729,6.84192 -6.57088,9.68872 -4.73491,6.62837 -10.40025,15.1013 -13.36921,19.99461 -1.28052,2.11049 -4.21834,6.65897 -6.52847,10.10772 -2.31015,3.44875 -6.04672,9.92827 -8.30349,14.39893 -2.25679,4.47066 -4.68476,8.48787 -5.3955,8.92712 -0.71073,0.43927 -5.02813,7.83298 -9.59422,16.43047 -4.56608,8.59749 -9.6261,17.43181 -11.24447,19.63181 -1.61837,2.2 -10.30455,17.8 -19.30261,34.66667 -8.99807,16.86666 -17.70286,32.46666 -19.34398,34.66666 -1.64112,2.2 -4.61718,7.26074 -6.61348,11.24607 -3.29917,6.58633 -7.07261,12.65643 -15.64486,25.16691 -1.6631,2.42714 -3.6238,5.1416 -4.35714,6.03213 -17.36229,21.08409 -20.0433,23.83824 -32.0563,32.93084 -18.62447,14.09681 -36.6339,20.3113 -58.55135,20.20424 -30.29184,-0.14798 -54.41413,-10.4567 -75.44404,-32.24122 -20.53879,-21.27574 -38.3256,-57.88697 -49.23347,-101.33897 -3.95276,-15.74598 -8.29411,-24.42359 -23.137994,-46.24891 -14.934561,-21.95864 -19.614937,-30.70355 -24.615409,-45.99191 -3.356234,-10.26131 -3.627362,-12.74104 -3.618243,-33.09251 0.01013,-22.55382 1.484633,-32.66437 7.389245,-50.66666 11.074907,-33.76575 41.266821,-58.54697 78.732791,-64.62309 39.94279,-6.4778 87.18829,2.76682 145.86811,28.54232 34.27256,15.05444 55.49469,22.76132 78.66666,28.56804 18.37034,4.60346 34.28678,6.55514 44.82662,5.49666 l 8.88865,-0.89265 0.89293,-8.33815 c 0.655,-6.11625 2.14404,-10.41502 5.58796,-16.13209 l 4.69502,-7.79395 -2.57363,-4.74688 c -4.57317,-8.43485 -8.57603,-15.38089 -9.65088,-16.74688 -0.57704,-0.73333 -2.24215,-3.43333 -3.70025,-6 -4.74439,-8.35146 -11.54346,-19.15391 -17.6232,-27.99999 -3.27604,-4.76667 -6.86847,-10.31915 -7.98316,-12.33884 -1.1147,-2.0197 -6.79063,-10.7197 -12.61319,-19.33334 -5.82256,-8.61364 -12.39049,-18.36116 -14.59541,-21.66116 -2.20494,-3.3 -8.89871,-12.6 -14.87506,-20.66666 -9.90565,-13.37031 -32.7749,-47.50144 -42.88261,-64 -6.70027,-10.93668 -11.16561,-19.48997 -13.89351,-26.6128 -1.4156,-3.69629 -3.09381,-7.92053 -3.72934,-9.3872 -6.93527,-16.00487 -9.83447,-37.39522 -7.42514,-54.78269 4.16696,-30.07168 24.86839,-59.185187 52.66756,-74.069147 20.61426,-11.037074 42.78192,-15.224836 73.91247,-13.963028 31.44129,1.274405 33.52248,1.53381 60.74084,7.570951 13.17643,2.922584 22.93453,2.531183 52.66667,-2.112476 19.01782,-2.970264 32.32618,-3.365096 45.68844,-1.355481 20.62454,3.101829 43.68041,13.881093 62.90382,29.409302 12.84246,10.37382 15.89875,13.502758 23.03775,23.585379 14.92929,21.08506 20.59687,44.40946 17.01824,70.03703 -0.89707,6.42408 -2.0668,12.28016 -2.59941,13.01349 -0.53262,0.73334 -1.74379,4.19879 -2.69151,7.70102 -0.94772,3.50222 -2.24083,6.68764 -2.87356,7.07869 -0.63275,0.39105 -1.15044,1.5592 -1.15044,2.59587 0,6.07729 -21.87267,42.31993 -31.33333,51.9188 -1.46667,1.48809 -5.96667,6.59146 -10,11.34081 -10.17822,11.98512 -35.71964,36.37029 -43.31035,41.34973 -1.72813,1.13364 -4.61433,3.5508 -6.41379,5.37145 -1.79944,1.82067 -7.64728,7.2103 -12.99518,11.97696 -31.58354,28.15084 -56.32015,56.99742 -63.66867,74.24717 -3.60824,8.46992 -3.68273,10.67243 -0.39625,11.71551 3.34592,1.06196 12.1003,11.80949 13.37313,16.41784 0.54983,1.99071 1.86488,3.55737 2.92233,3.48148 1.05744,-0.0759 12.94127,-0.54691 26.4085,-1.04665 13.46722,-0.49975 24.97122,-1.2086 25.56445,-1.57524 0.59321,-0.36663 4.55196,-0.88094 8.7972,-1.14292 4.24524,-0.26198 12.81863,-1.1606 19.05196,-1.99694 6.23333,-0.83634 20.33333,-2.71898 31.33333,-4.18364 11,-1.46466 37.1,-5.31618 58,-8.55896 58.13439,-9.0199 68.98311,-10.16622 96,-10.14378 41.5241,0.0345 71.32172,12.70904 91.1855,38.78613 8.89282,11.67445 16.8033,28.70339 20.1177,43.30744 1.69344,7.46171 0.95203,33.17378 -1.23153,42.70921 -4.53333,19.79667 -15.50143,45.74812 -25.79563,61.03464 -2.07981,3.08845 -5.3584,8.31537 -7.28573,11.61537 -1.92735,3.3 -8.04149,11.7 -13.587,18.66667 -12.50976,15.71566 -16.18303,23.10146 -24.82487,49.9151 -3.76652,11.68664 -8.39418,24.58664 -10.2837,28.66667 -5.06951,10.94652 -16.59095,26.86944 -25.009,34.56306 -15.9551,14.58206 -42.03292,29.15667 -61.37872,34.3039 -12.30032,3.27268 -36.59772,3.37544 -48.25332,0.20408 -49.16504,-13.37731 -86.9368,-65.93304 -108.99272,-151.65281 -6.45124,-25.07257 -8.99546,-34.17191 -14.16667,-50.66667 -11.67792,-37.24942 -23.38788,-60.8099 -37.60763,-75.66666 -4.38682,-4.58333 -8.48093,-8.33333 -9.09802,-8.33333 -1.70692,0 -1.35575,12.22216 1.16138,40.42042 3.32354,37.23196 3.31582,153.43824 -0.012,184.9129 -6.64073,62.80303 -17.27885,101.77997 -45.85285,168 -22.97395,53.24197 -40.96639,81.46406 -82.61197,129.58119 -6.78239,7.8364 -13.85752,16.6651 -15.72251,19.6195 -5.07704,8.0425 -12.28783,26.07 -20.83485,52.0884 -4.20775,12.8091 -8.16011,23.4531 -8.78302,23.6534 -0.62289,0.2004 -4.2746,-1.4373 -8.11489,-3.6393 z"
       id="path3189" />
    <path
       style="fill:#008000;stroke-width:1.33333"
       d="m 330.70752,1066 c 6.22585,-18.9844 15.30803,-40.2254 20.52368,-48 2.4598,-3.6667 11.20995,-14.4667 19.44476,-24.00003 31.37597,-36.32355 52.95648,-68.59337 68.10716,-101.84218 38.76812,-85.07828 51.41163,-134.16853 55.84452,-216.82448 2.61051,-48.67554 1.44259,-104.11845 -3.45103,-163.82463 -2.23484,-27.26707 -2.2294,-27.85309 0.27143,-29.24407 1.40357,-0.78068 4.14807,-3.00954 6.09887,-4.95302 3.17318,-3.16131 3.87561,-3.3513 6.66666,-1.80319 1.71587,0.95173 4.5092,1.75169 6.20742,1.77767 2.99973,0.0459 8.22938,2.22097 9.57901,3.98401 0.36667,0.47897 3.06667,2.63916 6,4.80039 2.93333,2.16124 6.08275,4.82952 6.99871,5.92952 3.9884,4.78981 15.1956,25.7037 20.04068,37.39815 8.83034,21.31359 22.22932,64.80878 27.06745,87.86521 1.31755,6.27884 1.51132,6.92367 8.03427,26.73663 20.84922,63.32787 52.55492,102.56914 91.18536,112.85764 3.67044,0.97756 12.69017,1.78449 20.04385,1.7932 10.79615,0.0133 15.41684,-0.64968 24,-3.4408 14.10189,-4.58575 29.65584,-12.77527 42.19036,-22.21423 20.10305,-15.13834 29.32275,-28.97245 38.4342,-57.67033 11.27413,-35.50953 12.49532,-37.93385 34.00156,-67.49986 22.21541,-30.54098 34.50372,-55.18028 39.47879,-79.15895 2.99398,-14.43033 3.1267,-21.90017 0.63962,-36 -2.39389,-13.5716 -6.12998,-22.99185 -13.53806,-34.1352 -17.97391,-27.03661 -46.48234,-39.0495 -89.91012,-37.88636 -21.11655,0.56558 -28.20234,1.28991 -59.33334,6.06527 C 677.82875,432.4634 614.05831,441.48408 584,445.28819 c -19.19417,2.42916 -54.76189,4.1653 -66.28927,3.23572 -10.92582,-0.88106 -10.9599,-0.89552 -12.40198,-5.26511 -2.45832,-7.44877 -8.7045,-14.71917 -15.59595,-18.15333 -6.12013,-3.04979 -6.46721,-3.49475 -5.51204,-7.06631 0.56065,-2.09636 0.49865,-4.74204 -0.13779,-5.87928 -1.34377,-2.40121 3.84408,-17.43572 7.97302,-23.10591 1.44686,-1.98697 2.63068,-3.97677 2.63068,-4.42177 0,-0.44501 4.10917,-6.3193 9.13149,-13.05398 14.08916,-18.89288 38.53085,-43.11092 73.3294,-72.65835 3.18681,-2.70593 8.01892,-7.01988 10.738,-9.58655 2.71908,-2.56666 7.31168,-6.78148 10.20579,-9.36625 20.22232,-18.06092 45.00621,-50.28272 53.84997,-70.01093 15.09348,-33.66972 15.95845,-60.01085 2.7984,-85.21929 -12.08275,-23.14485 -37.68135,-43.106299 -69.44661,-54.15356 -9.80464,-3.40984 -34.28572,-4.702372 -45.93978,-2.425489 -22.78604,4.451766 -54.3888,6.482503 -61.11065,3.926861 -1.80633,-0.686768 -5.89539,-1.616311 -9.0868,-2.065651 C 465.94448,69.56967 458.23333,68.353678 452,67.316807 c -33.45727,-5.565384 -62.74089,-5.041106 -84.66667,1.515822 -20.7125,6.194097 -42.06922,21.373124 -51.70538,36.748971 -15.00315,23.93962 -17.56486,45.2573 -8.94274,74.41839 1.40938,4.76667 2.54567,8.96667 2.5251,9.33334 -0.0317,0.56464 4.5199,9.54502 14.5293,28.66666 1.15162,2.2 3.78131,6.34003 5.84378,9.20006 2.06246,2.86002 3.74994,5.82268 3.74994,6.58368 0,0.761 2.58482,4.72098 5.74402,8.79994 7.43932,9.60518 23.0688,32.14463 28.47092,41.05823 2.32505,3.83637 8.36014,12.53637 13.41132,19.33333 5.05117,6.79695 15.68478,22.25809 23.63025,34.35809 7.94548,12.1 16.61319,25.18752 19.26157,29.08338 2.64839,3.89586 5.39507,8.09586 6.10374,9.33333 0.70865,1.23748 3.25865,5.39073 5.66666,9.22945 2.408,3.83871 4.37819,7.22739 4.37819,7.53039 0,0.303 2.4,4.50138 5.33333,9.32976 2.93334,4.82836 5.33334,9.59669 5.33334,10.59628 0,0.9996 1.2,2.90342 2.66666,4.23074 3.87303,3.50504 3.42154,8.94042 -1.01509,12.22056 -2.02497,1.49712 -5.43747,5.94786 -7.58333,9.89051 -3.11591,5.72495 -3.90158,8.82345 -3.90158,15.38697 v 8.2185 l -6.75,2.7088 c -9.31872,3.73962 -14.54014,4.64516 -25.62578,4.44417 -16.73122,-0.30335 -48.19212,-7.70313 -71.79088,-16.88564 -4.4,-1.71209 -13.7,-5.28495 -20.66667,-7.93968 -6.96667,-2.65473 -15.66667,-6.23868 -19.33333,-7.96431 -7.13104,-3.35605 -8.55183,-3.9573 -26,-11.00257 -71.53884,-28.88615 -132.61846,-27.647 -164.41879,3.33563 -16.089017,15.6753 -24.122024,34.41366 -27.674689,64.55594 -2.030239,17.22539 0.09269,36.31508 5.638373,50.70089 2.209335,5.73114 8.501339,17.01815 14.122209,25.33334 5.575657,8.24829 12.468517,18.47346 15.317477,22.7226 5.83127,8.69717 12.20917,22.22199 13.70156,29.05521 4.28995,19.64252 17.72639,57.14994 25.75194,71.88574 19.92325,36.58139 47.06362,56.72799 80.13641,59.48615 32.79191,2.73474 60.10435,-12.32119 86.14299,-47.48615 12.18101,-16.45034 15.45733,-21.73128 29.36588,-47.33333 6.37424,-11.73333 13.85504,-24.93333 16.62398,-29.33333 2.76895,-4.4 9.37315,-16.1 14.676,-26 5.30286,-9.9 11.2568,-20.4 13.231,-23.33333 1.9742,-2.93334 6.38599,-10.51175 9.804,-16.84092 3.418,-6.32918 8.17215,-14.53147 10.56476,-18.22734 2.39263,-3.69586 6.75023,-10.69893 9.68356,-15.56238 2.93334,-4.86346 6.59419,-10.46115 8.13524,-12.43934 1.54106,-1.97818 3.58958,-5.09133 4.55227,-6.91812 0.96269,-1.82677 4.69309,-7.36732 8.28977,-12.3123 3.59668,-4.94499 6.18812,-9.55929 5.75876,-10.25401 -0.42936,-0.69472 0.48528,-2.14983 2.03254,-3.23356 2.51429,-1.76108 3.40204,-1.70306 8.35564,0.54616 3.04834,1.38412 7.12826,2.52976 9.06646,2.54586 2.08943,0.0173 3.90658,0.97916 4.46378,2.36262 2.10012,5.21445 2.67506,22.40219 2.59802,77.66666 -0.0615,44.05744 -0.63492,63.9172 -2.38576,82.61509 -12.48297,133.31074 -38.97205,211.90241 -95.0646,282.05157 -22.55893,28.21211 -39.63584,43.11831 -55.7308,48.64663 -10.68133,3.66884 -13.51249,5.72851 -17.00744,12.37286 -2.39354,4.55046 -2.92628,7.58921 -2.74318,15.6472 0.48148,21.1888 7.40432,52.7612 14.03324,64 3.88749,6.5909 6.63062,9.565 7.71534,8.3648 0.51275,-0.5673 2.89996,-7.0315 5.30491,-14.3648 z"
       id="path3216" />
    <path
       style="display:inline;fill:#000000;stroke-width:1.33333"
       d="m 464.18429,417.66665 c -2.25386,-5.61214 -5.50722,-33.51966 -6.33397,-54.33333 -0.81469,-20.51038 -1.70449,-23.28452 -12.61623,-39.33333 -7.00636,-10.30484 -28.94092,-30.35528 -38.76582,-35.43593 -2.09088,-1.08124 -3.8016,-2.55047 -3.8016,-3.26498 0,-2.27012 4.45572,-1.17885 11.33333,2.7757 3.66667,2.10828 8.04229,4.44882 9.72363,5.20121 5.35589,2.39673 20.94248,15.55699 27.01408,22.80885 5.6312,6.72584 5.90188,6.87767 6.76453,3.79402 0.49424,-1.76671 0.95843,-8.66811 1.03152,-15.33643 l 0.13291,-12.12423 -6.55112,-9.2091 c -12.74382,-17.91436 -41.68207,-44.54529 -62.16575,-57.20911 -14.04219,-8.68142 -22.1876,-14.5874 -20.77028,-15.05984 2.5902,-0.8634 31.52481,13.96352 41.96851,21.50587 2.30192,1.66243 5.9853,3.89216 8.1853,4.95495 2.2,1.0628 12.32106,10.2113 22.49123,20.33002 10.17017,10.11871 18.68536,18.20352 18.92264,17.96624 0.79187,-0.79186 3.23252,-17.63305 3.24273,-22.37577 0.0221,-10.2782 -29.45816,-45.13539 -52.2962,-61.83451 -4.59821,-3.3622 -10.81912,-7.92221 -13.82421,-10.13336 -3.00511,-2.21114 -6.08164,-4.02026 -6.83675,-4.02026 -0.7551,0 -2.10952,-0.88755 -3.00981,-1.97234 -0.90029,-1.08478 -3.22376,-2.78785 -5.16325,-3.78458 -22.69163,-11.66152 -27.31223,-17.36479 -7.37643,-9.1048 11.19744,4.63942 27.76013,12.73176 33.18339,16.21298 2.2,1.4122 5.8,3.57515 8,4.80656 5.17837,2.8985 24.31132,18.03038 28.83977,22.80883 1.92855,2.03501 6.65524,7.90001 10.50377,13.03335 6.42386,8.56838 10.19458,12.28554 11.28248,11.12221 0.23431,-0.25055 2.02308,-7.78875 3.97504,-16.75155 l 3.54902,-16.29598 -5.2789,-7.70402 C 464.07255,181.72791 455.0374,172.41918 443.07693,162.44185 432.80785,153.87544 419.23584,144 417.73196,144 c -0.72527,0 -2.40464,-1.2 -3.73196,-2.66667 -1.32732,-1.46667 -3.14684,-2.66667 -4.04339,-2.66667 -0.89656,0 -2.37702,-0.9 -3.28994,-2 -2.74799,-3.31113 1.28481,-2.49032 13.54325,2.75652 25.27893,10.81983 41.76363,23.2412 54.27772,40.89879 2.55225,3.60126 3.89971,1.71189 6.99373,-9.80656 4.56046,-16.97765 4.63283,-22.10872 0.45903,-32.54161 -3.46719,-8.6666 -7.32212,-15.67272 -13.12101,-23.84675 -1.38267,-1.94898 -2.18603,-3.87153 -1.78524,-4.27232 1.499,-1.49899 11.78664,9.39869 15.08537,15.97992 4.07895,8.13781 7.28124,11.96459 8.768,10.47783 0.59612,-0.59612 2.14029,-4.19186 3.43151,-7.99052 1.2912,-3.79866 2.94764,-6.7751 3.68097,-6.61431 0.73333,0.16079 1.16384,0.80083 0.95668,1.42231 -0.20716,0.62147 -0.75308,3.87633 -1.21317,7.23301 l -0.83652,6.10307 8.27369,-6.69456 c 7.84107,-6.34451 17.48599,-10.9346 17.48599,-8.32171 0,0.66009 -2.55,3.03496 -5.66667,5.2775 -8.66615,6.23554 -19.18004,16.87197 -22.78432,23.04985 -3.26381,5.59432 -8.26551,24.74006 -7.25508,27.77135 0.33299,0.99896 2.83383,-0.43848 6.45808,-3.712 8.128,-7.34142 22.46988,-16.06825 33.06793,-20.12137 12.78515,-4.88954 30.84672,-9.74412 30.84672,-8.29096 0,0.68524 -3.75,3.01783 -8.33333,5.18355 -11.68708,5.52239 -26.59708,14.2224 -38.33333,22.36757 -11.6963,8.11743 -11.82238,8.22451 -21.19751,18.00209 -7.67504,8.00451 -7.3946,7.22448 -10.84161,30.15544 -0.81019,5.3897 -1.18711,10.08542 -0.83762,10.43492 0.34951,0.3495 5.63975,-4.36565 11.7561,-10.4781 7.21685,-7.21227 15.8499,-14.03471 24.59277,-19.43492 7.40968,-4.57675 13.81781,-8.32136 14.24031,-8.32136 0.42249,0 4.56004,-1.71159 9.19453,-3.80352 14.26376,-6.43842 36.07489,-13.42166 48.42636,-15.50459 6.91657,-1.1664 4.83452,0.60381 -5.33333,4.53452 -11.46838,4.43348 -46.33676,21.96533 -53.72904,27.015 -18.16896,12.41124 -32.49398,24.68139 -44.48831,38.10661 -8.08625,9.05092 -7.83241,8.27679 -9.8324,29.98531 -0.51459,5.58538 -0.33049,9 0.48521,9 0.72292,0 4.52068,-3.09119 8.43947,-6.86932 6.65008,-6.41139 14.26457,-12.56996 26.60305,-21.51645 12.20074,-8.84663 44.56063,-23.51467 60.85535,-27.58444 6.44873,-1.61063 5.21176,0.20182 -2.6874,3.93768 -3.8386,1.81544 -8.47927,4.28672 -10.3126,5.49173 -1.83333,1.20503 -4.83333,2.65396 -6.66667,3.21987 -4.46536,1.37833 -39.04889,23.21578 -40.3996,25.50994 -0.58645,0.99608 -2.68645,2.66467 -4.66666,3.70798 -4.3478,2.29072 -21.77295,19.06454 -28.64432,27.57366 -4.94788,6.12717 -4.95608,6.15848 -4.95608,18.92131 0,7.0312 0.49909,13.09245 1.1091,13.46946 0.61002,0.377 4.06002,-2.36125 7.66667,-6.08502 11.49477,-11.86804 34.04784,-24.6041 48.29187,-27.27115 4.44104,-0.83155 4.75434,-0.70863 3.14528,1.23397 -0.98288,1.18663 -2.98678,2.53828 -4.4531,3.00367 -5.48729,1.7416 -26.08434,15.62059 -34.95858,23.55627 -5.05931,4.52424 -11.50931,11.80077 -14.33334,16.17008 C 472.35752,346.52694 472,347.766 472,356.93096 c 0,5.41799 0.94703,18.37496 2.10451,28.79328 1.24494,11.20555 1.74618,22.34609 1.22721,27.27575 l -0.87731,8.33333 h -4.39877 c -3.5528,0 -4.68199,-0.70519 -5.87135,-3.66667 z"
       id="path3222" />
    <path
       style="display:inline;fill:#000000;stroke-width:1.33333"
       d="m 685.77931,641.71127 c 10e-4,-29.09024 -0.29214,-33.16079 -3.55518,-49.24831 -3.66378,-18.06326 -11.31616,-42.25582 -15.4663,-48.8959 -2.7079,-4.33252 -25.45143,-18.74014 -27.0536,-17.13797 -0.58698,0.58697 0.12586,4.53484 1.58397,8.77304 8.37719,24.34871 11.25028,55.25128 8.0034,86.08314 -1.62199,15.40206 -3.844,18.89624 -4.22761,6.64804 -0.14815,-4.73 -0.22851,-10.4 -0.17858,-12.6 0.14522,-6.39907 -3.39372,-40.64163 -5.02965,-48.66666 -4.29987,-21.09285 -12.29792,-44.61755 -16.9474,-49.8474 -2.41307,-2.71428 -22.98901,-13.18307 -23.97427,-12.1978 -0.32725,0.32725 0.94352,6.17129 2.82394,12.98677 4.36061,15.80478 5.6464,31.4463 3.5881,43.64919 -0.87201,5.16988 -2.01464,9.66503 -2.53918,9.9892 -0.52454,0.32419 -1.68836,-7.32368 -2.58627,-16.99527 -0.89791,-9.67158 -2.79063,-21.68418 -4.20603,-26.69468 -3.29752,-11.67314 -10.1866,-26.62708 -13.85396,-30.07238 -3.61574,-3.39681 -14.24048,-8.17328 -35.97665,-16.17368 -9.43211,-3.47167 -18.9438,-7.88679 -21.13711,-9.81137 -3.06826,-2.69236 -5.41657,-3.50395 -10.18404,-3.51966 -7.94916,-0.0263 -10.11021,-1.36794 -8.82586,-5.47978 1.31729,-4.21731 2.95298,-5.12178 9.30648,-5.14606 8.72473,-0.0333 49.6947,14.306 68.96824,24.13863 8.84721,4.51352 30.36638,3.17337 48.02456,-2.9908 7.9723,-2.783 27.98116,-12.07289 31.93308,-14.82619 3.7029,-2.5798 4.64957,0.27419 1.04402,3.14754 -16.57193,13.20654 -25.53292,18.07708 -42.5771,23.14178 -5.46171,1.62296 -10.11398,3.50164 -10.33839,4.17486 -0.2244,0.67321 4.54427,4.15813 10.59704,7.74425 8.96381,5.31085 12.07632,6.48722 16.78075,6.3423 6.83717,-0.21061 23.55184,-4.08289 37.66042,-8.72478 12.15696,-3.99977 42.44336,-18.25927 54.87286,-25.83532 12.67918,-7.72824 16.58548,-8.57115 9.55753,-2.06233 -18.84077,17.44905 -58.75025,37.82431 -85.51789,43.66007 -2.37494,0.51778 -4.64831,1.47578 -5.05195,2.12888 -0.40364,0.65311 4.23948,4.47974 10.31804,8.50359 l 11.05195,7.31612 10.66666,-1.33751 c 19.99464,-2.50714 49.21947,-11.69701 65.77495,-20.68318 3.90956,-2.12208 9.30956,-4.9915 12,-6.37648 2.69045,-1.385 11.64727,-6.935 19.90404,-12.33333 8.25677,-5.39835 15.72448,-9.81518 16.59489,-9.81518 4.3304,0 -20.11245,20.786 -38.72385,32.93044 -18.92681,12.35025 -41.96801,21.84383 -57.95329,23.87825 -7.31664,0.93118 -11.59674,2.55258 -11.59674,4.39312 0,0.6094 5.81514,5.72158 12.92251,11.3604 14.4764,11.48522 12.86729,11.16195 32.41083,6.51148 13.54294,-3.2226 40.92606,-15.46778 57.83118,-25.86093 3.57382,-2.19716 6.86131,-3.63139 7.30552,-3.18716 0.94226,0.94225 -9.02693,10.15813 -20.47004,18.92323 -10.07001,7.71334 -29.61034,16.98234 -40.18838,19.06345 -13.1311,2.58339 -13.14743,2.78235 -1.14495,13.95436 5.86667,5.46073 12.76667,10.70219 15.33333,11.64765 3.00246,1.106 11.20464,1.69923 23,1.6635 10.08334,-0.0305 18.33334,0.15005 18.33334,0.40136 0,1.6513 -11.34092,4.62633 -19.85608,5.20878 -5.57916,0.38162 -10.67902,1.20306 -11.33303,1.8254 -0.68075,0.64779 1.22487,4.01475 4.45749,7.87577 3.10563,3.70932 5.31738,6.74423 4.91499,6.74423 -0.40239,0 -2.94199,-1.5 -5.64356,-3.33333 -2.70156,-1.83334 -5.43964,-3.33334 -6.08461,-3.33334 -1.17264,0 -0.40338,4.60668 1.74004,10.42014 1.48988,4.04093 1.42389,13.73037 -0.11,16.15428 -0.88427,1.39734 -1.45056,0.50554 -2.11663,-3.33334 -1.70196,-9.80922 -4.90665,-19.89084 -9.0118,-28.35015 -3.2786,-6.75608 -5.94116,-9.88542 -13.32985,-15.66667 -12.48091,-9.76564 -13.04906,-9.67351 -9.64319,1.56384 3.27473,10.80472 3.93455,32.61666 1.44832,47.87857 -2.49167,15.29536 -3.19493,18 -4.68033,18 -0.87763,0 -1.83556,-19.58889 -1.63006,-33.33333 0.17675,-11.82024 -9.17341,-49.66507 -13.61522,-55.10775 -2.1097,-2.58506 -24.58347,-18.22558 -26.18824,-18.22558 -1.76452,0 -1.73255,0.18349 1.42954,8.20578 10.14226,25.73114 11.87026,64.85789 4.43592,100.44203 -1.0703,5.12297 -2.42457,9.79305 -3.00948,10.37796 -0.5849,0.5849 -1.06262,-13.20662 -1.06158,-30.64782 z"
       id="path3220" />
    <path
       style="display:inline;fill:#000000;stroke-width:1.33333"
       d="M 255.03139,684.52415 C 254.46412,683.13586 254,669.39998 254,653.99998 c 0,-24.66353 0.37761,-29.66823 3.16897,-42 3.51547,-15.5308 8.94867,-30.32482 15.09694,-41.10737 6.28122,-11.01572 5.79418,-11.06787 -25.9016,-2.77352 -3.82819,1.00179 -5.75138,2.63532 -8.37667,7.11503 -9.0226,15.39589 -17.67457,46.58345 -20.09407,72.43253 -0.49764,5.31666 -1.34572,9.66666 -1.88462,9.66666 -1.53664,0 -2.67562,-11.10424 -2.67562,-26.08538 0,-16.09448 3.71328,-34.25097 9.51135,-46.50685 6.02608,-12.73786 6.10232,-12.67018 -10.47345,-9.29756 -5.70418,1.1606 -11.78658,2.38844 -13.51644,2.7285 -4.18871,0.82347 -16.75902,12.84964 -22.11874,21.1613 -2.36442,3.66666 -5.64517,8.76666 -7.29053,11.33333 l -2.99159,4.66666 0.81118,-5.80662 c 0.89345,-6.39565 2.49628,-9.68663 9.41458,-19.33032 2.55296,-3.55867 4.26296,-7.08317 3.8,-7.83225 -0.52612,-0.85128 -4.06418,-1.03182 -9.43589,-0.48147 -9.73977,0.99787 -10.28655,-0.62819 -1.07815,-3.20639 3.3189,-0.92922 6.03435,-2.07945 6.03435,-2.55604 0,-0.47658 -3.06227,-2.04861 -6.80503,-3.49338 -6.69068,-2.58272 -17.98886,-10.94407 -16.62753,-12.3054 0.38223,-0.38223 5.20548,1.50448 10.71836,4.19268 14.44464,7.0435 26.91965,9.61664 37.25676,7.68466 11.41521,-2.13346 18.12411,-4.13865 18.12411,-5.41704 0,-0.60109 -3.13892,-2.39737 -6.97538,-3.99172 -12.78476,-5.31312 -25.94973,-14.66925 -38.40958,-27.29709 -16.51696,-16.73963 -19.33434,-21.91759 -6.61504,-12.15757 23.11821,17.73952 43.23145,29.28457 61.42126,35.25597 9.17503,3.01201 14.18636,3.40409 18.84934,1.47476 1.6845,-0.69699 7.7234,-2.615 13.41976,-4.26227 5.69636,-1.64726 10.15408,-3.60384 9.90604,-4.34796 -0.24803,-0.7441 -3.7087,-2.34702 -7.69035,-3.56205 C 239.17984,540.75538 219.82715,528.85094 198,508.17316 c -10.77887,-10.21129 -24.66667,-25.45055 -24.66667,-27.06705 0,-2.22854 2.18538,-0.89918 10.82328,6.58372 8.80012,7.62344 14.39138,12.01465 30.19346,23.71305 16.71521,12.37442 53.69205,29.11034 71.78568,32.4906 5.21257,0.97381 7.56676,0.48728 18.90904,-3.90787 C 312.17016,537.22452 318,534.23598 318,533.34444 c 0,-0.89155 -4.66324,-3.32112 -10.36276,-5.39906 -18.00332,-6.56365 -28.15803,-12.14698 -48.97057,-26.92534 -9.65236,-6.85384 -30.16178,-25.58531 -32.21554,-29.42277 -1.20104,-2.24418 -1.04094,-2.31912 1.78128,-0.83386 1.70551,0.89758 5.05463,3.193 7.44248,5.10094 2.38787,1.90793 6.28787,5.0297 8.66667,6.93728 6.53845,5.24318 37.83177,24.23229 47.65844,28.91962 10.73873,5.12239 24.61063,10.10957 36.01949,12.94964 l 8.68616,2.16229 11.48455,-5.28077 c 6.31649,-2.90443 11.83183,-5.84269 12.25628,-6.52949 0.42447,-0.6868 -4.21593,-3.18886 -10.31199,-5.56012 -6.09605,-2.37127 -15.52016,-7.19316 -20.94245,-10.71532 -10.28443,-6.68047 -25.03595,-20.68136 -23.45543,-22.26189 0.50254,-0.50254 1.96739,0.009 3.25522,1.13716 4.53709,3.97392 26.43701,16.79873 34.34465,20.11257 11.00635,4.61241 23.13515,7.598 30.86656,7.598 5.73707,0 8.6536,-1.28314 25.29407,-11.12808 10.34509,-6.12044 20.89697,-12.72044 23.4486,-14.66667 2.55164,-1.94622 5.7827,-3.55176 7.18014,-3.56786 1.39746,-0.0161 5.19988,-1.2356 8.44987,-2.71 5.15664,-2.33938 6.15475,-2.43502 7.83863,-0.75114 1.68388,1.68388 1.18613,2.79948 -3.90906,8.76138 -6.59581,7.7178 -23.78685,19.28558 -46.12038,31.03423 -12.18152,6.40814 -15.79067,9.02034 -19.49871,14.11258 -6.30216,8.65474 -12.22923,19.56108 -15.35193,28.24889 -3.23138,8.99017 -8.20094,30.81859 -8.20094,36.02201 0,5.65672 -2.39532,6.11362 -3.41986,0.65234 -1.57019,-8.36986 2.1271,-36.60274 5.93773,-45.34102 4.49312,-10.30332 5.78847,-14.13812 5.0314,-14.89518 -1.06581,-1.0658 -18.62289,5.88508 -24.17416,9.57058 -5.05396,3.35536 -14.63957,22.2454 -20.46859,40.33672 -5.61082,17.41415 -10.58833,40.20728 -13.01409,59.59444 -1.09693,8.76693 -2.222,16.16745 -2.50013,16.44559 -0.27814,0.27813 -0.91612,-2.77928 -1.41776,-6.79426 -1.38983,-11.12384 0.6818,-38.3247 4.18309,-54.92455 2.16137,-10.24726 10.09072,-34.70098 13.20477,-40.72288 4.07531,-7.88076 2.12092,-8.31162 -13.08345,-2.88435 -11.54899,4.12247 -12.42913,5.03603 -20.81669,21.60723 -13.75074,27.1671 -20.95976,55.55163 -24.20378,95.29891 -0.77653,9.5144 -1.66324,17.55028 -1.97045,17.85751 -0.30723,0.30721 -1.02272,-0.57729 -1.58997,-1.96559 z"
       id="path3218" />
  </g>
</svg>
